<?xml version="1.0" standalone="no"?>
<!DOCTYPE svg PUBLIC "-//W3C//DTD SVG 20010904//EN"
 "http://www.w3.org/TR/2001/REC-SVG-20010904/DTD/svg10.dtd">
<svg version="1.0" xmlns="http://www.w3.org/2000/svg"
 width="198.000000pt" height="198.000000pt" viewBox="0 0 198.000000 198.000000"
 preserveAspectRatio="xMidYMid meet">
  <g transform="translate(0.000000,198.000000) scale(0.100000,-0.100000)"
  fill="#000000" stroke="none">
    <path d="M938 1070 c-63 -49 -21 -102 78 -98 53 3 59 1 59 -16 0 -29 -51 -39
    -108 -22 -38 11 -48 12 -57 1 -18 -22 27 -39 101 -40 77 0 109 19 109 65 0 42
    -24 55 -99 55 -51 0 -66 3 -66 14 0 20 47 31 92 21 23 -6 42 -5 47 0 18 18
    -12 34 -71 38 -48 3 -63 0 -85 -18z"/>
    <path d="M1170 990 l0 -101 83 3 c65 2 82 6 82 18 0 11 -15 16 -62 18 -59 3
    -63 4 -63 27 0 24 3 25 55 25 42 0 55 3 55 15 0 12 -13 15 -55 15 -48 0 -55 2
    -55 20 0 18 7 20 60 20 53 0 60 2 60 20 0 18 -7 20 -80 20 l-80 0 0 -100z"/>
    <path d="M1410 1010 c-53 -109 -56 -120 -33 -120 10 0 23 8 30 18 8 13 25 19
    62 21 41 2 52 -2 63 -19 11 -17 48 -29 48 -16 0 2 -21 47 -46 100 -60 123 -70
    124 -124 16z"/>
  </g>
</svg>
